<svg width="28" height="32" viewBox="0 0 28 32" fill="none" xmlns="http://www.w3.org/2000/svg">
<path d="M15.688 12.032V32H11.656V12.032H9.4V8H11.704C11.768 6.464 12.2 5.088 13 3.872C13.832 2.656 14.92 1.712 16.264 1.04C17.608 0.367999 19.08 0.0319996 20.68 0.0319996V4.16C19.336 4.096 18.2 4.432 17.272 5.168C16.376 5.904 15.896 6.848 15.832 8H20.68V12.032H15.688Z" fill="#0CC0DF"/>
<path d="M4 10.6667C4 9.1939 5.1939 8 6.66666 8H22.6666C23.403 8 24 8.59696 24 9.33334C24 10.8061 22.806 12 21.3334 12H5.33334C4.59696 12 4 11.403 4 10.6667Z" fill="#0CC0DF"/>
<path d="M0 16C0 14.8954 0.89543 14 2 14H9C9.55228 14 10 14.4478 10 15C10 16.1046 9.10456 17 8 17H1C0.447716 17 0 16.5522 0 16Z" fill="#0CC0DF"/>
<path d="M18 3C18 1.34314 19.3431 0 21 0H26.8C27.4628 0 28 0.53726 28 1.2C28 2.85686 26.6568 4.2 25 4.2H19.2C18.5373 4.2 18 3.66274 18 3Z" fill="#0CC0DF"/>
</svg>
