<svg width="14" height="16" viewBox="0 0 14 16" fill="none" xmlns="http://www.w3.org/2000/svg">
<path d="M8.344 6.016V16H6.328V6.016H5.2V4H6.352C6.384 3.232 6.6 2.544 7 1.936C7.416 1.328 7.96 0.855999 8.632 0.519999C9.304 0.184 10.04 0.0159998 10.84 0.0159998V2.08C10.168 2.048 9.6 2.216 9.136 2.584C8.688 2.952 8.448 3.424 8.416 4H10.84V6.016H8.344Z" fill="#0CC0DF"/>
<path d="M2 5.33333C2 4.59695 2.59695 4 3.33333 4H11.3333C11.7015 4 12 4.29848 12 4.66667V4.66667C12 5.40305 11.403 6 10.6667 6H2.66667C2.29848 6 2 5.70152 2 5.33333V5.33333Z" fill="#0CC0DF"/>
<path d="M0 8C0 7.44772 0.447715 7 1 7H4.5C4.77614 7 5 7.22386 5 7.5V7.5C5 8.05228 4.55228 8.5 4 8.5H0.5C0.223858 8.5 0 8.27614 0 8V8Z" fill="#0CC0DF"/>
<path d="M9 1.5C9 0.671573 9.67157 0 10.5 0H13.4C13.7314 0 14 0.268629 14 0.6V0.6C14 1.42843 13.3284 2.1 12.5 2.1H9.6C9.26863 2.1 9 1.83137 9 1.5V1.5Z" fill="#0CC0DF"/>
</svg>
